<?xml version="1.0" encoding="utf-8"?>
<svg viewBox="-1.276 125.833 499.914 233.167" xmlns="http://www.w3.org/2000/svg">
  <defs>
    <clipPath id="clip-1">
      <path d="M-32,288v-320h320v320zM243.41778,164.31289c-8.03111,-11.56133 -21.11778,-18.53511 -35.41778,-18.53511c-16.73822,0 -31.84133,9.81067 -38.92489,24.596c-14.29422,4.33333 -24.63067,17.66844 -24.63067,33.18178c0,19.11867 15.548,34.66667 34.66667,34.66667h54.88889c20.70756,0 37.55556,-16.848 37.55556,-37.55556c0,-17.212 -11.93689,-32.11867 -28.13778,-36.35378z" id="overlayBgMask" fill="none"/>
    </clipPath>
  </defs>
  <g transform="matrix(0.8, 0, 0, 0.8, 143.721712, 132.534365)">
    <g fill="#333333" fill-rule="nonzero" stroke="none" stroke-width="1" stroke-linecap="butt" stroke-linejoin="miter" stroke-miterlimit="10" stroke-dasharray="" stroke-dashoffset="0" font-family="none" font-weight="none" font-size="none" text-anchor="none" style="mix-blend-mode: normal">
      <path d="M -182.855 288 L -182.855 -9.543 L 444.722 -9.543 L 444.722 288 L -182.855 288 Z" id="bgRectangle" style=""/>
    </g>
    <g clip-path="url(#clip-1)" fill="none" fill-rule="nonzero" stroke="none" stroke-width="1" stroke-linecap="butt" stroke-linejoin="miter" stroke-miterlimit="10" stroke-dasharray="" stroke-dashoffset="0" font-family="none" font-weight="none" font-size="none" text-anchor="none" style="mix-blend-mode: normal" transform="matrix(1, 0, 0, 1, 6.86346, 0)">
      <g transform="scale(8,8)" fill="#ffffff">
        <path d="M 11.269 6.895 C 10.479 6.895 9.83 7.565 9.83 8.385 C 9.83 9.185 10.459 9.876 11.269 9.876 C 12.079 9.876 12.72 9.195 12.72 8.385 C 12.72 7.545 12.069 6.895 11.269 6.895 Z M 0.044 7.155 C -0.046 7.155 -0.086 7.196 -0.086 7.296 L -0.086 21.684 C -0.086 21.784 -0.046 21.835 0.044 21.835 L 2.095 21.835 C 2.195 21.835 2.234 21.784 2.234 21.684 L 2.234 14.675 C 2.234 14.625 2.095 13.276 4.525 13.276 C 6.955 13.276 6.814 14.625 6.814 14.675 L 6.814 20.995 C 6.814 21.455 7.184 21.835 7.634 21.835 L 9.005 21.835 C 9.095 21.835 9.134 21.784 9.134 21.684 L 9.134 14.675 C 9.133 13.465 8.674 12.515 7.734 11.815 C 6.934 11.215 5.924 10.895 4.724 10.895 C 3.814 10.885 2.994 11.085 2.234 11.475 L 2.234 7.296 C 2.234 7.196 2.185 7.155 2.095 7.155 L 0.044 7.155 Z M 18.671 10.895 C 17.109 10.895 13.554 11.908 13.554 16.13 L 13.554 25.419 C 13.554 25.468 13.584 25.557 13.683 25.557 L 15.695 25.557 C 15.783 25.557 15.833 25.518 15.833 25.419 L 15.833 20.93 C 16.638 21.568 17.59 21.893 18.66 21.893 C 21.636 21.893 24.003 19.438 24.003 16.393 C 24.004 13.34 21.637 10.895 18.671 10.895 L 18.671 10.895 Z M 28.394 10.895 C 27.089 10.895 26.167 11.181 25.519 11.671 C 25.499 11.691 24.125 12.68 24.41 14.387 C 24.577 15.378 25.184 16.115 26.234 16.596 L 28.865 17.784 C 29.435 18.04 29.611 18.45 29.464 18.852 C 29.277 19.313 28.815 19.54 27.667 19.54 C 26.48 19.54 25.479 19.089 24.802 18.579 C 24.704 18.511 24.587 18.588 24.587 18.696 L 24.587 20.432 C 24.587 20.962 24.831 21.306 25.302 21.483 C 26.068 21.758 26.853 21.895 27.667 21.895 C 28.295 21.895 28.934 21.835 29.455 21.678 C 29.484 21.658 31.22 21.228 31.691 19.364 C 31.857 18.677 31.808 18.019 31.533 17.382 C 31.2 16.587 30.631 16.018 29.826 15.655 L 27.001 14.38 C 26.579 14.194 26.549 13.81 26.873 13.565 C 27.236 13.28 29.041 12.859 30.994 13.909 C 31.072 13.958 31.189 13.888 31.189 13.79 L 31.189 11.524 C 31.189 11.455 31.16 11.415 31.091 11.395 C 30.228 11.062 29.326 10.895 28.394 10.895 L 28.394 10.895 Z M 10.249 11.135 C 10.169 11.135 10.119 11.216 10.119 11.286 L 10.119 21.684 C 10.119 21.764 10.169 21.835 10.249 21.835 L 12.3 21.835 C 12.39 21.835 12.439 21.784 12.439 21.684 L 12.439 11.286 C 12.439 11.186 12.39 11.135 12.3 11.135 L 10.249 11.135 Z M 18.671 13.243 C 20.36 13.243 21.724 14.647 21.724 16.395 C 21.726 18.133 20.38 19.548 18.671 19.548 C 17.826 19.548 17.101 19.233 16.511 18.624 C 15.912 18.005 15.617 17.269 15.617 16.395 C 15.617 14.647 16.972 13.243 18.671 13.243 L 18.671 13.243 Z"/>
      </g>
    </g>
    <g fill="#ffffff" fill-rule="nonzero" stroke="none" stroke-width="1" stroke-linecap="butt" stroke-linejoin="miter" stroke-miterlimit="10" stroke-dasharray="" stroke-dashoffset="0" font-family="none" font-weight="none" font-size="none" text-anchor="none" style="mix-blend-mode: normal" transform="matrix(1, 0, 0, 1, 6.847858, -3.001287)">
      <g transform="translate(156,157.33333) scale(5.77778,5.77778)" id="overlay">
        <path d="M13.5,12h-9.5c-2.206,0 -4,-1.794 -4,-4c0,-2.116 1.651,-3.853 3.732,-3.991c0.655,-2.338 2.783,-4.009 5.268,-4.009c2.072,0 3.957,1.187 4.885,3.016c2.302,0.196 4.115,2.132 4.115,4.484c0,2.481 -2.019,4.5 -4.5,4.5zM4,6c-1.103,0 -2,0.897 -2,2c0,1.103 0.897,2 2,2h9.5c1.379,0 2.5,-1.122 2.5,-2.5c0,-1.378 -1.121,-2.5 -2.5,-2.5h-0.985l-0.236,-0.665c-0.498,-1.397 -1.815,-2.335 -3.279,-2.335c-1.769,0 -3.252,1.337 -3.45,3.111l-0.1,0.889z"/>
      </g>
    </g>
  </g>
</svg>